<svg xmlns="http://www.w3.org/2000/svg" viewBox="0 0 24 24"><defs><style>.c7448f3f-7d61-4f5c-9c0e-63ef63e20ffe{fill:#ccdeed;}.\32 994d10d-5f61-46f9-9ec7-212ecb1d9294{fill:#eea520;}.f4c70515-3d29-4d8f-8cc4-ca2450c11a8b{fill:#3c6baf;}.fc77e057-b4f3-4c1d-8b17-de71297a4ad4{fill:#ffcf35;}.e70d78ec-56ce-486f-8ea5-c8dcb5c699f0{fill:#2a6cb5;}.d3fa7458-701f-4958-9ade-87cc453e440f{fill:#0057a3;}.\37 18061ef-a86e-432f-b4e7-8f550c0f1a95{fill:#fff;}</style></defs><circle class="c7448f3f-7d61-4f5c-9c0e-63ef63e20ffe" cx="12" cy="12" r="12"/><path class="2994d10d-5f61-46f9-9ec7-212ecb1d9294" d="M17.2 7H7v2.16h2.2v4.77h10.17V9.16A2.16 2.16 0 0 0 17.2 7z"/><path class="f4c70515-3d29-4d8f-8cc4-ca2450c11a8b" d="M13.33 5V4h-2.47v7.56a1.23 1.23 0 1 0 1.23-1.23 1.2 1.2 0 0 0-.37.07V5h1.6z"/><path class="fc77e057-b4f3-4c1d-8b17-de71297a4ad4" d="M7 7a2.16 2.16 0 0 0-2.13 2.16v4.77H9.2V9.16A2.16 2.16 0 0 0 7 7z"/><path class="e70d78ec-56ce-486f-8ea5-c8dcb5c699f0" d="M4.87 13.93H9.2v.69H4.87z"/><path class="d3fa7458-701f-4958-9ade-87cc453e440f" d="M9.2 13.93v.7h1.87v5.98h1.03v-5.98h7.27v-.7H9.2z"/><path class="f4c70515-3d29-4d8f-8cc4-ca2450c11a8b" d="M12.1 14.63h1.58v5.99H12.1z"/><path class="718061ef-a86e-432f-b4e7-8f550c0f1a95" d="M5.64 9.16H8.4v1.12H5.64z"/><path class="2994d10d-5f61-46f9-9ec7-212ecb1d9294" d="M5.64 11H8.4v.22H5.64zm.65.5h1.45v.22H6.29zm-.65.5H8.4v.22H5.64z"/><circle class="718061ef-a86e-432f-b4e7-8f550c0f1a95" cx="12.1" cy="11.51" r=".47"/></svg>
