<svg xmlns="http://www.w3.org/2000/svg" viewBox="0 0 24 24"><defs><style>.c4f80591-f08f-4d28-bb05-220aa58dac31{fill:#ccdeed;}.c1ba1e39-fe78-4546-9292-0582fa1b803e{fill:#eea520;}.\36 6b1e8d9-99e4-4df4-9e26-d935f9a4be5a{fill:#ffcf35;}.d9520c95-322d-44c9-9c46-fb8a99893ea4{fill:#3c6baf;}.a38450d5-83d5-43d8-9bc8-dddc88767067{fill:#0057a3;}.f294ab2b-01b3-45e2-9f26-c6a391c54f3e{fill:#2a6cb5;}.e73ac3d3-4e84-4324-bcdb-9826cc6b40fb{fill:#fff;}</style></defs><circle class="c4f80591-f08f-4d28-bb05-220aa58dac31" cx="12" cy="12" r="12"/><path class="c1ba1e39-fe78-4546-9292-0582fa1b803e" d="M17.2 9.16V6.99H7.03v2.17h-.01v5.05h12.35V9.16H17.2z"/><circle class="66b1e8d9-99e4-4df4-9e26-d935f9a4be5a" cx="7.03" cy="9.16" r="2.16"/><circle class="c1ba1e39-fe78-4546-9292-0582fa1b803e" cx="17.2" cy="9.16" r="2.16"/><circle class="d9520c95-322d-44c9-9c46-fb8a99893ea4" cx="12.1" cy="11.51" r="1.23"/><path class="66b1e8d9-99e4-4df4-9e26-d935f9a4be5a" d="M4.87 9.16H9.2v5.05H4.87z"/><path class="d9520c95-322d-44c9-9c46-fb8a99893ea4" d="M11.73 14.63h1.95v5.99h-1.95z"/><path class="a38450d5-83d5-43d8-9bc8-dddc88767067" d="M11.07 14.63h1.03v5.99h-1.03z"/><path class="d9520c95-322d-44c9-9c46-fb8a99893ea4" d="M11.73 3.95h-.86v7.57h.86V5.05h1.6v-1.1h-1.6z"/><path class="a38450d5-83d5-43d8-9bc8-dddc88767067" d="M8.63 14h10.74v1H8.63z"/><path class="f294ab2b-01b3-45e2-9f26-c6a391c54f3e" d="M4.87 14H9.2v1H4.87z"/><path class="e73ac3d3-4e84-4324-bcdb-9826cc6b40fb" d="M5.64 9.16H8.4v1.12H5.64z"/><path class="c1ba1e39-fe78-4546-9292-0582fa1b803e" d="M5.64 11H8.4v.22H5.64zm.65.5h1.45v.22H6.29zm-.65.5H8.4v.22H5.64z"/><circle class="e73ac3d3-4e84-4324-bcdb-9826cc6b40fb" cx="12.1" cy="11.51" r=".47"/></svg>
